<svg width="100" height="90" viewBox="0 0 100 90" fill="none" xmlns="http://www.w3.org/2000/svg">
<path d="M53.3633 89.219C77.6596 89.219 97.3633 69.5826 97.3633 45.3347C97.3633 21.0868 77.6596 1.45038 53.3633 1.45038C29.067 1.45038 9.36328 21.0868 9.36328 45.3347C9.36328 69.5826 29.067 89.219 53.3633 89.219Z" fill="#F1F3F9"/>
<path d="M87.067 39.6074V66.4586C87.067 72.0371 82.5485 76.5744 76.9189 76.5744H29.9558C24.4002 76.5744 19.8817 72.1115 19.8076 66.533C19.8076 66.4586 19.8076 66.4586 19.8076 66.3842V39.6074C19.8076 39.533 19.8076 39.533 19.8076 39.4586C19.8076 39.3098 19.8076 39.1611 19.8817 39.0123C19.9558 38.7892 20.0298 38.6404 20.1039 38.4173L32.6965 14.2437C33.141 13.2768 34.1039 12.7561 35.141 12.7561H71.6595C72.6965 12.7561 73.5854 13.2768 74.1041 14.2437L86.6967 38.4173C86.7707 38.566 86.8448 38.7892 86.9189 39.0123C87.067 39.1611 87.067 39.3842 87.067 39.6074Z" fill="#F1F3F9" stroke="#D6DCE8" stroke-width="2" stroke-miterlimit="10"/>
<path d="M63.0673 39.8305H44.0303C43.2155 39.8305 42.5488 39.2355 42.5488 38.3429V12.2355C42.5488 11.4174 43.1414 10.7479 44.0303 10.7479H62.9933C63.8081 10.7479 64.4748 11.343 64.4748 12.2355V38.3429C64.4748 39.1611 63.8822 39.8305 63.0673 39.8305Z" fill="white" stroke="#D6DCE8" stroke-width="2" stroke-miterlimit="10"/>
<path d="M69.3633 46.0041H37.7337C36.6967 46.0041 35.8818 45.1116 35.8818 44.1446V18.781C35.8818 17.7397 36.7707 16.9215 37.7337 16.9215H69.3633C70.4004 16.9215 71.2152 17.8141 71.2152 18.781V44.1446C71.1411 45.186 70.4004 46.0041 69.3633 46.0041Z" fill="white" stroke="#D6DCE8" stroke-width="2" stroke-miterlimit="10"/>
<path d="M72.9934 53.2189H34.1786C33.0675 53.2189 32.1045 52.252 32.1045 51.2107V26.2189C32.1045 25.1032 33.0675 24.2107 34.1786 24.2107H72.9934C74.1046 24.2107 75.0675 25.1776 75.0675 26.2189V51.1363C74.9935 52.3264 74.1046 53.2189 72.9934 53.2189Z" fill="white" stroke="#D6DCE8" stroke-width="2" stroke-miterlimit="10"/>
<path d="M76.9192 60.2107H30.2525C28.9932 60.2107 28.0303 59.1693 28.0303 58.0536V33.4338C28.0303 32.1693 29.0673 31.2768 30.2525 31.2768H76.9192C78.1785 31.2768 79.1415 32.3181 79.1415 33.4338V57.9793C79.0674 59.2437 78.1785 60.2107 76.9192 60.2107Z" fill="white" stroke="#D6DCE8" stroke-width="2" stroke-miterlimit="10"/>
<path d="M62.9191 41.0207H45.3635C44.9191 41.0207 44.4746 40.6488 44.4746 40.1281C44.4746 39.6818 44.845 39.2355 45.3635 39.2355H62.9191C63.3635 39.2355 63.8079 39.6074 63.8079 40.1281C63.8079 40.6488 63.4376 41.0207 62.9191 41.0207Z" fill="#E6ECF5"/>
<path d="M57.8081 46.2273H35.5859C35.2896 46.2273 35.0674 46.0041 35.0674 45.7066C35.0674 45.4091 35.2896 45.1859 35.5859 45.1859H57.7341C58.0303 45.1859 58.2526 45.4091 58.2526 45.7066C58.4007 45.8554 58.1785 46.2273 57.8081 46.2273Z" fill="#E6ECF5"/>
<path d="M72.401 46.2273H61.2158C60.9195 46.2273 60.6973 46.0041 60.6973 45.7066C60.6973 45.4091 60.9195 45.1859 61.2158 45.1859H72.3269C72.6232 45.1859 72.8454 45.4091 72.8454 45.7066C72.9936 45.8554 72.7713 46.2273 72.401 46.2273Z" fill="#E6ECF5"/>
<g filter="url(#filter0_d_19_45)">
<path d="M83.2022 40.9536V66.411C83.2022 70.0317 80.3177 72.9283 76.6459 72.9283H30.229C26.6231 72.9283 23.6729 70.0317 23.6729 66.411V40.822C23.6729 40.6902 23.6729 40.5586 23.7384 40.4269H36.4642C38.6932 40.4269 40.5289 42.2044 40.5289 44.5086C40.5289 45.6277 40.9879 46.681 41.709 47.4051C42.4957 48.1951 43.4136 48.5901 44.5937 48.5901H63.0878C65.3169 48.5901 67.1526 46.8126 67.1526 44.5086C67.1526 43.3894 67.6115 42.3361 68.3327 41.6119C69.1194 40.822 70.0373 40.4269 71.1518 40.4269H83.0711C83.2022 40.5586 83.2022 40.7561 83.2022 40.9536Z" fill="white"/>
</g>
<path d="M87.067 39.6074V69.2107C87.067 73.3016 83.8078 76.5744 79.6596 76.5744H27.215C23.1409 76.5744 19.8076 73.3016 19.8076 69.2107V39.4586C19.8076 39.3098 19.8076 39.1612 19.8817 39.0124H36.7706C39.2891 39.0124 41.3632 41.0207 41.3632 43.624C41.3632 44.8884 41.8817 46.0784 42.6965 46.8966C43.5854 47.7892 44.6224 48.2355 45.9558 48.2355H60.9928C63.5113 48.2355 65.5854 46.2273 65.5854 43.624C65.5854 42.3595 66.1039 41.1694 66.9187 40.3512C67.8076 39.4587 68.8447 39.0124 70.1039 39.0124H86.9189C87.067 39.1612 87.067 39.3843 87.067 39.6074Z" fill="white" stroke="#D6DCE8" stroke-width="2" stroke-miterlimit="10"/>
<path d="M79.6598 65.8636H64.4005C63.8819 65.8636 63.4375 65.4917 63.4375 64.8967C63.4375 64.376 63.8079 63.9297 64.4005 63.9297H79.5117C80.0302 63.9297 80.4746 64.3017 80.4746 64.8967C80.5487 65.343 80.1042 65.8636 79.6598 65.8636Z" fill="#E6ECF5"/>
<path d="M72.8449 70.5496H64.4005C63.8819 70.5496 63.4375 70.1777 63.4375 69.5826C63.4375 69.062 63.8079 68.6157 64.4005 68.6157H72.7708C73.2894 68.6157 73.7338 68.9876 73.7338 69.5826C73.8079 70.0289 73.3634 70.5496 72.8449 70.5496Z" fill="#E6ECF5"/>
<path d="M67.5913 73.6735C67.295 74.938 66.8506 76.2768 66.3321 77.3926C64.9247 80.1446 62.7024 82.3016 59.9617 83.7149C57.1469 85.1281 53.8135 85.7231 50.4802 84.9793C42.5543 83.2686 37.5172 75.6074 39.1469 67.7231C40.7765 59.8388 48.4061 54.7066 56.258 56.4173C59.0728 57.0124 61.5172 58.4256 63.5913 60.3595C67.1469 63.8554 68.5543 68.8388 67.5913 73.6735Z" fill="#D6DCE8" stroke="#AAB2C5" stroke-width="2" stroke-miterlimit="10"/>
<path d="M57.9567 68.6157H55.3641V66.0124C55.3641 64.9611 54.5421 64.0042 53.3641 64.0042C52.317 64.0042 51.3641 64.8295 51.3641 66.0124V68.6157H48.7715C47.7245 68.6157 46.7715 69.441 46.7715 70.624C46.7715 71.174 46.9662 71.6855 47.3403 72.0611C47.7143 72.4366 48.2236 72.6322 48.7715 72.6322H51.3641V75.2356C51.3641 76.2865 52.186 77.2438 53.3641 77.2438C54.411 77.2438 55.3641 76.4182 55.3641 75.2356V72.6322H57.9567C59.0036 72.6322 59.9567 71.8069 59.9567 70.624C59.9567 69.441 59.0036 68.6157 57.9567 68.6157Z" fill="white" stroke="#AAB2C5" stroke-width="2"/>
<path d="M96.2392 24.3594C97.917 24.3594 99.2762 22.9941 99.2762 21.3098C99.2762 19.6257 97.917 18.2603 96.2392 18.2603C94.5622 18.2603 93.2021 19.6257 93.2021 21.3098C93.2021 22.9941 94.5622 24.3594 96.2392 24.3594Z" fill="#F1F3F9"/>
<path d="M93.202 14.4669C94.3479 14.4669 95.2761 13.5345 95.2761 12.3843C95.2761 11.2341 94.3479 10.3017 93.202 10.3017C92.0568 10.3017 91.1279 11.2341 91.1279 12.3843C91.1279 13.5345 92.0568 14.4669 93.202 14.4669Z" fill="#F1F3F9"/>
<path d="M9.20198 21.3099C10.3475 21.3099 11.2761 20.3774 11.2761 19.2272C11.2761 18.077 10.3475 17.1446 9.20198 17.1446C8.0565 17.1446 7.12793 18.077 7.12793 19.2272C7.12793 20.3774 8.0565 21.3099 9.20198 21.3099Z" fill="#F1F3F9"/>
<path d="M4.53545 67.1281C6.66277 67.1281 8.38728 65.3964 8.38728 63.2603C8.38728 61.1242 6.66277 59.3925 4.53545 59.3925C2.40813 59.3925 0.683594 61.1242 0.683594 63.2603C0.683594 65.3964 2.40813 67.1281 4.53545 67.1281Z" fill="#F1F3F9"/>
<defs>
<filter id="filter0_d_19_45" x="10.6729" y="24.4269" width="85.5293" height="58.5014" filterUnits="userSpaceOnUse" color-interpolation-filters="sRGB">
<feFlood flood-opacity="0" result="BackgroundImageFix"/>
<feColorMatrix in="SourceAlpha" type="matrix" values="0 0 0 0 0 0 0 0 0 0 0 0 0 0 0 0 0 0 127 0" result="hardAlpha"/>
<feOffset dy="-3"/>
<feGaussianBlur stdDeviation="6.5"/>
<feColorMatrix type="matrix" values="0 0 0 0 0.397708 0 0 0 0 0.47749 0 0 0 0 0.575 0 0 0 0.27 0"/>
<feBlend mode="normal" in2="BackgroundImageFix" result="effect1_dropShadow_19_45"/>
<feBlend mode="normal" in="SourceGraphic" in2="effect1_dropShadow_19_45" result="shape"/>
</filter>
</defs>
</svg>
