<svg width="148" height="32" viewBox="0 0 148 32" fill="none" xmlns="http://www.w3.org/2000/svg">
<g clip-path="url(#clip0_40_678)">
<path d="M10.6228 11.913C10.549 11.2227 10.2379 10.6851 9.68952 10.3004C9.14642 9.91567 8.43985 9.72332 7.56983 9.72332C6.95819 9.72332 6.43353 9.81554 5.99589 10C5.55823 10.1845 5.22341 10.4348 4.99141 10.751C4.7594 11.0672 4.64076 11.4282 4.63548 11.834C4.63548 12.1713 4.71195 12.4638 4.86486 12.7115C5.02304 12.9592 5.23659 13.17 5.5055 13.3439C5.77443 13.5125 6.07234 13.6548 6.39926 13.7708C6.72618 13.8867 7.05573 13.9841 7.38792 14.0633L8.9065 14.4427C9.51815 14.585 10.1061 14.7773 10.6703 15.0198C11.2397 15.2622 11.7486 15.5679 12.1968 15.9367C12.6502 16.3057 13.0088 16.751 13.2724 17.2728C13.5361 17.7945 13.6679 18.4058 13.6679 19.1068C13.6679 20.0554 13.4253 20.8907 12.9402 21.6127C12.4551 22.3293 11.7538 22.8907 10.8364 23.2964C9.92416 23.697 8.8195 23.8972 7.52238 23.8972C6.26217 23.8972 5.16805 23.7023 4.24002 23.3123C3.31727 22.9223 2.5949 22.3531 2.07289 21.6047C1.55614 20.8563 1.27668 19.9446 1.2345 18.8696H4.12139C4.16357 19.4335 4.33757 19.9025 4.6434 20.2767C4.94922 20.6509 5.34733 20.9302 5.8377 21.1146C6.33334 21.2991 6.887 21.3913 7.49864 21.3913C8.13667 21.3913 8.69558 21.2964 9.17542 21.1068C9.66051 20.9117 10.0402 20.6429 10.3144 20.3004C10.5885 19.9526 10.7283 19.5467 10.7335 19.083C10.7283 18.6614 10.6044 18.3136 10.3618 18.0395C10.1193 17.7603 9.77916 17.5283 9.34151 17.3439C8.90913 17.1541 8.40294 16.9855 7.82293 16.838L5.98006 16.3637C4.64603 16.0211 3.59146 15.5019 2.81636 14.8063C2.04652 14.1055 1.6616 13.1752 1.6616 12.0158C1.6616 11.0619 1.91997 10.2266 2.43671 9.50988C2.95872 8.79315 3.66792 8.23715 4.56431 7.84189C5.46069 7.44136 6.47571 7.24111 7.60938 7.24111C8.75887 7.24111 9.76597 7.44136 10.6307 7.84189C11.5007 8.23715 12.1836 8.78788 12.6792 9.49407C13.1749 10.195 13.4306 11.0013 13.4464 11.913H10.6228ZM19.1101 23.6522L15.6774 11.5099H18.596L20.7315 20.0474H20.8422L23.0251 11.5099H25.9119L28.0949 20H28.2137L30.3175 11.5099H33.2439L29.8034 23.6522H26.8216L24.5437 15.4467H24.3776L22.0997 23.6522H19.1101ZM39.1843 23.8972C38.4145 23.8972 37.7211 23.7603 37.1042 23.4862C36.4925 23.2068 36.0074 22.7958 35.6489 22.2529C35.2956 21.7102 35.119 21.0408 35.119 20.245C35.119 19.5599 35.2455 18.9934 35.4986 18.5454C35.7517 18.0975 36.097 17.7391 36.5347 17.4703C36.9723 17.2015 37.4654 16.9987 38.0137 16.8616C38.5673 16.7193 39.1395 16.6166 39.7301 16.5533C40.4419 16.4796 41.0193 16.4136 41.4622 16.3558C41.9052 16.2925 42.2267 16.1976 42.4272 16.0711C42.6328 15.9393 42.7356 15.7365 42.7356 15.4624V15.415C42.7356 14.8195 42.559 14.3584 42.2057 14.0316C41.8524 13.7049 41.3436 13.5415 40.6792 13.5415C39.9779 13.5415 39.4216 13.6943 39.0103 14C38.6044 14.3057 38.3301 14.6667 38.1877 15.083L35.5145 14.7036C35.7254 13.9658 36.0734 13.3491 36.5585 12.8538C37.0436 12.3531 37.6368 11.9789 38.3381 11.7312C39.0394 11.4783 39.8145 11.3518 40.6633 11.3518C41.2487 11.3518 41.8312 11.4203 42.4113 11.5573C42.9914 11.6943 43.5213 11.9209 44.0011 12.2371C44.481 12.5481 44.8659 12.9723 45.1558 13.5099C45.4511 14.0474 45.5988 14.7193 45.5988 15.5257V23.6522H42.8463V21.9841H42.7514C42.5774 22.3215 42.3322 22.6376 42.0158 22.9329C41.7047 23.2227 41.3119 23.4571 40.8373 23.6363C40.3681 23.8102 39.8171 23.8972 39.1843 23.8972ZM39.9278 21.7945C40.5025 21.7945 41.0009 21.6811 41.4227 21.4546C41.8445 21.2227 42.1688 20.917 42.3954 20.5376C42.6275 20.1581 42.7434 19.7444 42.7434 19.2964V17.8656C42.6539 17.9393 42.5009 18.0079 42.2848 18.0711C42.0739 18.1344 41.8365 18.1898 41.5729 18.2372C41.3092 18.2845 41.0482 18.3267 40.7899 18.3637C40.5315 18.4006 40.3074 18.4321 40.1176 18.4584C39.6906 18.5165 39.3082 18.6113 38.9708 18.7431C38.6333 18.8749 38.367 19.0593 38.172 19.2964C37.9768 19.5283 37.8793 19.8287 37.8793 20.1976C37.8793 20.7246 38.0718 21.1225 38.4567 21.3913C38.8416 21.6601 39.332 21.7945 39.9278 21.7945ZM48.9232 28.2055V11.5099H51.7389V13.5178H51.905C52.0527 13.2227 52.2609 12.9091 52.5299 12.5771C52.7988 12.2398 53.1625 11.9526 53.6213 11.7154C54.08 11.473 54.6654 11.3518 55.3771 11.3518C56.3158 11.3518 57.162 11.5916 57.916 12.0712C58.6753 12.5455 59.2765 13.249 59.7193 14.1818C60.1675 15.1093 60.3916 16.2477 60.3916 17.5968C60.3916 18.9302 60.1728 20.0633 59.7352 20.996C59.2975 21.9289 58.7017 22.6403 57.9476 23.1304C57.1937 23.6206 56.3394 23.8656 55.3851 23.8656C54.689 23.8656 54.1116 23.7497 53.653 23.5178C53.1941 23.2858 52.8251 23.0066 52.5456 22.6798C52.2715 22.3478 52.058 22.0342 51.905 21.7391H51.7864V28.2055H48.9232ZM51.731 17.5811C51.731 18.3663 51.8418 19.0541 52.0631 19.6442C52.2899 20.2346 52.6142 20.6957 53.036 21.0276C53.4631 21.3544 53.9798 21.5178 54.5862 21.5178C55.219 21.5178 55.7489 21.3491 56.176 21.0119C56.6031 20.6694 56.9248 20.2029 57.141 19.6127C57.3624 19.0172 57.4731 18.3399 57.4731 17.5811C57.4731 16.8274 57.3651 16.1581 57.1489 15.5731C56.9327 14.9881 56.611 14.5297 56.1839 14.1976C55.7569 13.8656 55.2243 13.6996 54.5862 13.6996C53.9746 13.6996 53.4551 13.8603 53.0281 14.1818C52.601 14.5032 52.2768 14.9539 52.0553 15.5336C51.8391 16.1133 51.731 16.7958 51.731 17.5811ZM65.8991 19.8419L65.8912 16.3873H66.3498L70.7158 11.5099H74.0614L68.6909 17.4862H68.0978L65.8991 19.8419ZM63.289 23.6522V7.46245H66.1522V23.6522H63.289ZM70.9135 23.6522L66.9588 18.1265L68.8888 16.1106L74.3383 23.6522H70.9135ZM79.9109 23.8972C79.1411 23.8972 78.4477 23.7603 77.8308 23.4862C77.2191 23.2068 76.734 22.7958 76.3754 22.2529C76.0221 21.7102 75.8456 21.0408 75.8456 20.245C75.8456 19.5599 75.9721 18.9934 76.2252 18.5454C76.4783 18.0975 76.8236 17.7391 77.2613 17.4703C77.6989 17.2015 78.192 16.9987 78.7403 16.8616C79.2939 16.7193 79.8661 16.6166 80.4567 16.5533C81.1684 16.4796 81.7459 16.4136 82.1888 16.3558C82.6317 16.2925 82.9533 16.1976 83.1538 16.0711C83.3594 15.9393 83.4621 15.7365 83.4621 15.4624V15.415C83.4621 14.8195 83.2854 14.3584 82.9323 14.0316C82.579 13.7049 82.0701 13.5415 81.4058 13.5415C80.7045 13.5415 80.1482 13.6943 79.7369 14C79.3308 14.3057 79.0567 14.6667 78.9143 15.083L76.2409 14.7036C76.452 13.9658 76.8 13.3491 77.2849 12.8538C77.7701 12.3531 78.3633 11.9789 79.0647 11.7312C79.7658 11.4783 80.541 11.3518 81.3899 11.3518C81.9753 11.3518 82.5578 11.4203 83.1379 11.5573C83.7179 11.6943 84.2478 11.9209 84.7276 12.2371C85.2074 12.5481 85.5923 12.9723 85.8824 13.5099C86.1777 14.0474 86.3254 14.7193 86.3254 15.5257V23.6522H83.5729V21.9841H83.478C83.304 22.3215 83.0588 22.6376 82.7424 22.9329C82.4313 23.2227 82.0385 23.4571 81.5639 23.6363C81.0947 23.8102 80.5437 23.8972 79.9109 23.8972ZM80.6544 21.7945C81.2291 21.7945 81.7273 21.6811 82.1493 21.4546C82.5711 21.2227 82.8953 20.917 83.122 20.5376C83.3541 20.1581 83.47 19.7444 83.47 19.2964V17.8656C83.3804 17.9393 83.2275 18.0079 83.0114 18.0711C82.8005 18.1344 82.5631 18.1898 82.2995 18.2372C82.0358 18.2845 81.7748 18.3267 81.5164 18.3637C81.2581 18.4006 81.034 18.4321 80.8442 18.4584C80.417 18.5165 80.0348 18.6113 79.6973 18.7431C79.3599 18.8749 79.0936 19.0593 78.8985 19.2964C78.7034 19.5283 78.6058 19.8287 78.6058 20.1976C78.6058 20.7246 78.7984 21.1225 79.1833 21.3913C79.5682 21.6601 80.0586 21.7945 80.6544 21.7945ZM93.1456 23.8972C92.3758 23.8972 91.6825 23.7603 91.0655 23.4862C90.4539 23.2068 89.9687 22.7958 89.6101 22.2529C89.2568 21.7102 89.0803 21.0408 89.0803 20.245C89.0803 19.5599 89.2069 18.9934 89.4599 18.5454C89.713 18.0975 90.0584 17.7391 90.496 17.4703C90.9337 17.2015 91.4268 16.9987 91.9751 16.8616C92.5287 16.7193 93.1008 16.6166 93.6914 16.5533C94.4032 16.4796 94.9806 16.4136 95.4236 16.3558C95.8665 16.2925 96.1881 16.1976 96.3885 16.0711C96.5941 15.9393 96.6969 15.7365 96.6969 15.4624V15.415C96.6969 14.8195 96.5202 14.3584 96.167 14.0316C95.8137 13.7049 95.3048 13.5415 94.6405 13.5415C93.9392 13.5415 93.383 13.6943 92.9716 14C92.5656 14.3057 92.2915 14.6667 92.1491 15.083L89.4757 14.7036C89.6867 13.9658 90.0347 13.3491 90.5197 12.8538C91.0048 12.3531 91.5981 11.9789 92.2994 11.7312C93.0006 11.4783 93.7758 11.3518 94.6247 11.3518C95.21 11.3518 95.7926 11.4203 96.3726 11.5573C96.9527 11.6943 97.4825 11.9209 97.9623 12.2371C98.4422 12.5481 98.8271 12.9723 99.1172 13.5099C99.4124 14.0474 99.5601 14.7193 99.5601 15.5257V23.6522H96.8077V21.9841H96.7127C96.5387 22.3215 96.2936 22.6376 95.9772 22.9329C95.6661 23.2227 95.2732 23.4571 94.7987 23.6363C94.3294 23.8102 93.7785 23.8972 93.1456 23.8972ZM93.8891 21.7945C94.4639 21.7945 94.9621 21.6811 95.384 21.4546C95.8058 21.2227 96.13 20.917 96.3568 20.5376C96.5888 20.1581 96.7048 19.7444 96.7048 19.2964V17.8656C96.6151 17.9393 96.4623 18.0079 96.2461 18.0711C96.0352 18.1344 95.7979 18.1898 95.5342 18.2372C95.2706 18.2845 95.0096 18.3267 94.7512 18.3637C94.4929 18.4006 94.2687 18.4321 94.079 18.4584C93.6518 18.5165 93.2695 18.6113 92.9321 18.7431C92.5947 18.8749 92.3284 19.0593 92.1332 19.2964C91.9382 19.5283 91.8406 19.8287 91.8406 20.1976C91.8406 20.7246 92.0331 21.1225 92.418 21.3913C92.8029 21.6601 93.2933 21.7945 93.8891 21.7945ZM102.884 23.6522V11.5099H105.661V13.5336H105.787C106.009 12.8327 106.388 12.2925 106.926 11.913C107.469 11.5283 108.089 11.336 108.785 11.336C108.943 11.336 109.12 11.3439 109.315 11.3597C109.515 11.3702 109.681 11.3887 109.813 11.415V14.0474C109.692 14.0053 109.499 13.9684 109.236 13.9367C108.977 13.8999 108.727 13.8814 108.484 13.8814C107.962 13.8814 107.493 13.9947 107.076 14.2214C106.665 14.4427 106.341 14.751 106.104 15.1463C105.866 15.5416 105.748 15.9974 105.748 16.5138V23.6522H102.884ZM118.88 11.5099V13.7233H111.896V11.5099H118.88ZM113.62 8.60079H116.483V20C116.483 20.3847 116.541 20.6798 116.657 20.8854C116.778 21.0856 116.937 21.2227 117.132 21.2964C117.327 21.3702 117.543 21.4072 117.78 21.4072C117.959 21.4072 118.123 21.3939 118.271 21.3677C118.423 21.3412 118.54 21.3176 118.619 21.2964L119.101 23.5336C118.948 23.5864 118.729 23.6442 118.445 23.7076C118.165 23.7707 117.822 23.8076 117.416 23.8182C116.699 23.8393 116.053 23.7312 115.479 23.4941C114.904 23.2516 114.448 22.8775 114.11 22.3715C113.778 21.8656 113.615 21.2333 113.62 20.4743V8.60079Z" fill="#2B2A35"/>
<path d="M128.289 12.702C129.109 13.9996 130.258 17.2003 128.289 19.6224M133.703 10.2149C134.933 12.2694 136.656 17.5247 133.703 22.1095M138.501 7.61973C140.101 10.3951 142.339 17.6328 138.501 24.3802M143.668 5.56522C145.719 8.84523 148.589 17.6111 143.668 26.4348" stroke="#2C71F6" stroke-width="2" stroke-linecap="round" stroke-linejoin="round"/>
</g>
<defs>
<clipPath id="clip0_40_678">
<rect width="147.556" height="32" fill="white" transform="translate(0.222168)"/>
</clipPath>
</defs>
</svg>
